<svg viewBox="8.61 3.285 500 500" xmlns="http://www.w3.org/2000/svg" xmlns:xlink="http://www.w3.org/1999/xlink">
  <path d="M 103.628 122.952 L 386.193 122.952 C 393.287 122.952 399.039 128.737 399.039 135.873 L 399.039 137.793 L 403.273 138.829 L 403.155 190.773 L 399.171 193.333 L 399.057 314.053 C 399.058 321.189 393.307 326.974 386.213 326.974 L 103.647 326.974 C 96.554 326.974 90.803 321.189 90.802 314.053 L 90.751 193.807 L 86.494 191.277 L 86.541 138.769 L 90.751 137.312 L 90.784 135.873 C 90.784 128.737 96.534 122.952 103.628 122.952 Z" style="fill-rule: nonzero; paint-order: fill; stroke: rgb(238, 238, 238); fill: none;" transform="matrix(1, 0.000099, -0.000099, 1, 0.022273, -0.024242)"></path>
  <ellipse style="stroke: rgb(122, 136, 255); fill: none;" cx="183.54" cy="238.013" rx="34.81" ry="34.81"></ellipse>
  <ellipse style="stroke: rgb(122, 136, 255); fill: none;" cx="307.435" cy="235.384" rx="53.151" ry="53.151"></ellipse>
  <ellipse style="stroke: rgb(182, 255, 140); fill: none;" cx="127.373" cy="135.615" rx="6.556" ry="6.556"></ellipse>
  <ellipse style="stroke: rgb(182, 255, 140); fill: none;" cx="363.663" cy="135.753" rx="6.556" ry="6.556"></ellipse>
  <path style="stroke: rgb(122, 136, 255); fill: none;" d="M 149.071 242.561 L 118.88 136.754 C 118.88 136.754 118.083 132.812 120.867 129.736 C 123.448 126.884 127.189 126.907 127.189 126.907 L 363.236 126.969 C 363.236 126.969 367.837 126.803 370.341 129.591 C 373.052 132.61 372.276 137.229 372.33 137.283 L 360.25 240.873"></path>
  <ellipse style="stroke: rgb(238, 238, 238); fill: none;" cx="385.567" cy="138.027" rx="5.651" ry="5.651"></ellipse>
  <ellipse style="stroke: rgb(238, 238, 238); fill: none;" cx="105.111" cy="138.22" rx="5.651" ry="5.651"></ellipse>
  <ellipse style="stroke: rgb(238, 238, 238); fill: none;" cx="385.313" cy="314.976" rx="5.651" ry="5.651"></ellipse>
  <ellipse style="stroke: rgb(238, 238, 238); fill: none;" cx="105.111" cy="315.247" rx="5.651" ry="5.651"></ellipse>
  <ellipse style="stroke: rgb(238, 238, 238); fill: none;" cx="169.911" cy="135.24" rx="5.651" ry="5.651"></ellipse>
  <ellipse style="stroke: rgb(238, 238, 238); fill: none;" cx="320.61" cy="134.826" rx="5.651" ry="5.651"></ellipse>
  <ellipse style="stroke: rgb(238, 238, 238); fill: none;" cx="245.257" cy="165.58" rx="5.651" ry="5.651"></ellipse>
  <rect x="198.7" y="135.123" width="9.228" height="9.331" style="stroke: rgb(238, 238, 238); fill: none;"></rect>
  <rect x="283.702" y="135.277" width="9.228" height="9.331" style="stroke: rgb(238, 238, 238); fill: none;"></rect>
  <ellipse style="stroke: rgb(122, 136, 255); fill: none;" cx="183.672" cy="237.742" rx="25.286" ry="25.286"></ellipse>
  <ellipse style="stroke: rgb(122, 136, 255); fill: none;" cx="307.637" cy="235.61" rx="25.286" ry="25.286"></ellipse>
  <ellipse style="stroke: rgb(182, 255, 140); stroke-dasharray: 15, 6; stroke-dashoffset: 19px; fill: none; stroke-linecap: round;" cx="307.822" cy="235.053" rx="19.702" ry="19.702"></ellipse>
  <ellipse style="stroke: rgb(182, 255, 140); stroke-dasharray: 15, 6; stroke-dashoffset: 19px; fill: none; stroke-linecap: round;" cx="183.34" cy="237.819" rx="19.702" ry="19.702"></ellipse>
  <path style="stroke: rgb(182, 255, 140); stroke-linejoin: round; fill: none; stroke-width: 8.24443px;" d="M 1609.855 439.747 C 1627.551 428.818 1672.73 427.848 1690.48 439.85 L 1674.865 471.738 C 1687.617 478.236 1699.005 483.251 1711.006 490.235 L 1728.641 456.231 C 1744.021 467.627 1765.876 511.945 1765.455 529.254 L 1733.108 530.28 C 1733.39 544.39 1733.447 559.246 1733.108 573.356 L 1767.733 572.483 C 1764.477 596.346 1750.193 630.417 1727.596 642.679 L 1710.773 611.757 C 1697.246 619.568 1686.167 625.155 1674.265 632.199 L 1688.059 661.882 C 1668.983 675.46 1632.011 675.139 1614.387 663.913 L 1628.531 631.06 C 1615.616 625.287 1606.028 617.965 1593.884 610.661 L 1574.335 641.982 C 1550.402 628.771 1530.923 594.498 1535.063 571.344 L 1572.346 571.078 C 1572.876 556.588 1572.745 544.39 1572.346 530.28 L 1535.822 530.394 C 1536.615 497.152 1551.168 477.667 1573.299 460.801 L 1593.884 492.975 C 1604.305 486.973 1616.165 478.971 1628.721 471.552 C 1627.623 468.61 1607.302 440.536 1609.855 439.747 Z" transform="matrix(0.121294, 0, 0, 0.121294, 107.408134, 168.472992)"></path>
  <path style="stroke: rgb(182, 255, 140); stroke-linejoin: round; fill: none;" d="M 178.894 224.078 C 181.04 222.752 186.52 222.634 188.673 224.09 L 186.779 227.958 C 188.326 228.746 189.707 229.354 191.163 230.201 L 193.302 226.077 C 195.167 227.459 197.818 232.835 197.767 234.934 L 193.843 235.059 C 193.878 236.77 193.885 238.572 193.843 240.284 L 198.043 240.178 C 197.648 243.072 195.916 247.205 193.175 248.692 L 191.134 244.941 C 189.494 245.889 188.15 246.566 186.706 247.421 L 188.379 251.021 C 186.065 252.668 181.581 252.629 179.443 251.268 L 181.159 247.283 C 179.592 246.582 178.429 245.694 176.956 244.808 L 174.585 248.607 C 171.682 247.005 169.32 242.848 169.822 240.04 L 174.344 240.007 C 174.408 238.25 174.392 236.77 174.344 235.059 L 169.914 235.073 C 170.01 231.04 171.775 228.677 174.46 226.631 L 176.956 230.534 C 178.22 229.806 179.659 228.835 181.182 227.935 C 181.049 227.578 178.584 224.173 178.894 224.078 Z"></path>
  <path style="fill: none; stroke-linejoin: round; stroke-linecap: round; stroke: rgb(255, 0, 0);" d="M 176.912 216.106 C 179.952 214.786 184.913 214.391 189.863 215.861"></path>
  <path style="fill: none; stroke-linejoin: round; stroke-linecap: round; stroke: rgb(255, 0, 0);" d="M 301.322 257.95 C 305.535 256.291 310.779 256.423 314.273 257.705" transform="matrix(-0.999658, -0.026135, 0.026135, -0.999658, 608.760237, 522.945747)"></path>
  <path d="M 141.331 123 L 350.448 122.952 L 340.463 167.804 C 339.599 170.774 338.991 172.986 334.094 172.986 L 154.848 172.986 C 151.986 172.986 150.416 170.509 149.897 167.734 L 141.331 123 Z" style="opacity: 0.9; stroke: rgb(238, 238, 238); fill: none;"></path>
</svg>