<svg viewBox="0 0 330 220" xmlns="http://www.w3.org/2000/svg" xmlns:bx="https://boxy-svg.com">
  <defs>
    <bx:grid x="76.892" y="95.703" width="177.126" height="51.325"></bx:grid>
  </defs>
  <path style="stroke: rgb(122, 136, 255); fill: none;" d="M 65.919 206.744 L 36.939 101.234 C 36.939 101.234 36.142 97.292 38.926 94.216 C 41.507 91.364 45.248 91.387 45.248 91.387 L 281.295 91.449 C 281.295 91.449 285.896 91.283 288.4 94.071 C 291.111 97.09 290.335 101.709 290.389 101.763 L 279.182 203.205" transform="matrix(-1, 0, 0, -1, 327.285591, 298.130997)" id="tape-strip">
    <title>tape-strip</title>
  </path>
  <g transform="matrix(-1, 0, 0, -1, 328.687012, 217.376022)" id="tape-enclosure">
    <title>tape-enclosure</title>
    <ellipse style="stroke: rgb(182, 255, 140); fill: none;" cx="46.833" cy="19.34" rx="6.556" ry="6.556"></ellipse>
    <ellipse style="stroke: rgb(182, 255, 140); fill: none;" cx="283.123" cy="19.478" rx="6.556" ry="6.556"></ellipse>
    <rect x="203.162" y="19.002" width="9.228" height="9.331" style="stroke: rgb(238, 238, 238); fill: none;"></rect>
    <rect x="118.16" y="18.848" width="9.228" height="9.331" style="stroke: rgb(238, 238, 238); fill: none;"></rect>
    <path d="M 23.088 6.677 L 305.653 6.677 C 312.747 6.677 318.499 12.462 318.499 19.598 L 318.499 21.518 L 322.733 22.554 L 322.615 74.498 L 318.631 77.058 L 318.517 197.778 C 318.518 204.914 312.767 210.699 305.673 210.699 L 23.107 210.699 C 16.014 210.699 10.263 204.914 10.262 197.778 L 10.211 77.532 L 5.954 75.002 L 6.001 22.494 L 10.211 21.037 L 10.244 19.598 C 10.244 12.462 15.994 6.677 23.088 6.677 Z" style="fill-rule: nonzero; paint-order: fill; stroke: rgb(238, 238, 238); fill: none;" transform="matrix(1, 0.000099, -0.000099, 1, 0.010761, -0.016269)"></path>
    <path d="M 60.791 6.725 L 269.908 6.677 L 259.923 51.529 C 259.059 54.499 258.451 56.711 253.554 56.711 L 74.308 56.711 C 71.446 56.711 69.876 54.234 69.357 51.459 L 60.791 6.725 Z" style="opacity: 0.9; stroke: rgb(238, 238, 238); fill: none;"></path>
    <ellipse style="stroke: rgb(238, 238, 238); fill: none;" cx="305.027" cy="21.752" rx="5.651" ry="5.651"></ellipse>
    <ellipse style="stroke: rgb(238, 238, 238); fill: none;" cx="24.571" cy="21.945" rx="5.651" ry="5.651"></ellipse>
    <ellipse style="stroke: rgb(238, 238, 238); fill: none;" cx="304.773" cy="198.701" rx="5.651" ry="5.651"></ellipse>
    <ellipse style="stroke: rgb(238, 238, 238); fill: none;" cx="24.571" cy="198.972" rx="5.651" ry="5.651"></ellipse>
    <ellipse style="stroke: rgb(238, 238, 238); fill: none;" cx="89.371" cy="18.965" rx="5.651" ry="5.651"></ellipse>
    <ellipse style="stroke: rgb(238, 238, 238); fill: none;" cx="240.07" cy="18.551" rx="5.651" ry="5.651"></ellipse>
    <ellipse style="stroke: rgb(238, 238, 238); fill: none;" cx="164.717" cy="49.305" rx="5.651" ry="5.651"></ellipse>
  </g>
  <ellipse style="stroke: rgb(122, 136, 255); fill: none;" cx="-101.255" cy="-95.582" rx="53.151" ry="53.151" transform="matrix(-1, 0, 0, -1, 0, 0)" id="left-roll">
    <title>left-roll</title>
  </ellipse>
  <g transform="matrix(-1, 0, 0, -1, 328.687012, 217.376022)" class="spinner" id="left-spinner">
    <title>left-spinner</title>
    <ellipse style="stroke: rgb(122, 136, 255); fill: none;" cx="228.448" cy="121.467" rx="25.286" ry="25.286"></ellipse>
    <ellipse style="stroke: rgb(182, 255, 140); stroke-dasharray: 15, 6; stroke-dashoffset: 19px; fill: none; stroke-linecap: round;" cx="228.448" cy="121.467" rx="19.702" ry="19.702"></ellipse>
    <path style="stroke: rgb(182, 255, 140); stroke-linejoin: round; fill: none;" d="M 223.485 107.669 C 225.631 106.343 231.111 106.226 233.264 107.682 L 231.37 111.549 C 232.917 112.337 234.298 112.946 235.754 113.793 L 237.893 109.668 C 239.758 111.051 242.409 116.426 242.358 118.526 L 238.435 118.65 C 238.469 120.362 238.476 122.164 238.435 123.875 L 242.634 123.769 C 242.24 126.664 240.507 130.796 237.766 132.283 L 235.726 128.533 C 234.085 129.48 232.741 130.158 231.297 131.012 L 232.97 134.613 C 230.657 136.26 226.172 136.221 224.035 134.859 L 225.75 130.874 C 224.184 130.174 223.021 129.286 221.548 128.4 L 219.176 132.199 C 216.274 130.596 213.911 126.439 214.413 123.631 L 218.935 123.599 C 218.999 121.841 218.984 120.362 218.935 118.65 L 214.505 118.664 C 214.601 114.632 216.366 112.268 219.051 110.223 L 221.548 114.125 C 222.812 113.397 224.25 112.427 225.773 111.527 C 225.64 111.17 223.175 107.765 223.485 107.669 Z"></path>
    <path style="fill: none; stroke-linejoin: round; stroke-linecap: round; stroke: rgb(255, 0, 0);" d="M 222.129 144.123 C 226.342 142.464 231.586 142.596 235.08 143.878" transform="matrix(-0.999658, -0.026135, 0.026135, -0.999658, 453.380275, 292.945779)"></path>
  </g>
  <ellipse style="stroke: rgb(122, 136, 255); fill: none;" cx="-226.743" cy="-96.342" rx="34.81" ry="34.81" transform="matrix(-1, 0, 0, -1, 0, 0)" id="right-roll">
    <title>right-roll</title>
  </ellipse>
  <g transform="matrix(-1, 0, 0, -1, 328.687012, 217.376022)" class="spinner" id="right-spinner">
    <title>right-spinner</title>
    <ellipse style="stroke: rgb(122, 136, 255); fill: none;" cx="102.102" cy="121.467" rx="25.286" ry="25.286"></ellipse>
    <ellipse style="stroke: rgb(182, 255, 140); stroke-dasharray: 15, 6; stroke-dashoffset: 19px; fill: none; stroke-linecap: round;"  cx="102.102" cy="121.467" rx="19.702" ry="19.702"></ellipse>
    <path style="stroke: rgb(182, 255, 140); stroke-linejoin: round; fill: none;" d="M 97.324 107.803 C 99.47 106.477 104.95 106.359 107.103 107.815 L 105.209 111.683 C 106.756 112.471 108.137 113.079 109.593 113.926 L 111.732 109.802 C 113.597 111.184 116.248 116.56 116.197 118.659 L 112.273 118.784 C 112.308 120.495 112.315 122.297 112.273 124.009 L 116.473 123.903 C 116.078 126.797 114.346 130.93 111.605 132.417 L 109.564 128.666 C 107.924 129.614 106.58 130.291 105.136 131.146 L 106.809 134.746 C 104.495 136.393 100.011 136.354 97.873 134.993 L 99.589 131.008 C 98.022 130.307 96.859 129.419 95.386 128.533 L 93.015 132.332 C 90.112 130.73 87.75 126.573 88.252 123.765 L 92.774 123.732 C 92.838 121.975 92.822 120.495 92.774 118.784 L 88.344 118.798 C 88.44 114.765 90.205 112.402 92.89 110.356 L 95.386 114.259 C 96.65 113.531 98.089 112.56 99.612 111.66 C 99.479 111.303 97.014 107.898 97.324 107.803 Z"></path>
    <path style="fill: none; stroke-linejoin: round; stroke-linecap: round; stroke: rgb(255, 0, 0);" d="M 95.342 99.831 C 98.382 98.511 103.343 98.116 108.293 99.586"></path>
  </g>
</svg>